<svg width="28" height="29" viewBox="0 0 28 29" fill="none" xmlns="http://www.w3.org/2000/svg">
<path d="M6.7691 21.7857H21.2225C22.1399 21.7857 22.8321 21.5619 23.2993 21.1144C23.7664 20.6669 24 20.0038 24 19.1251V14.5487C24 14.2485 23.9803 13.9947 23.9409 13.7874C23.9071 13.58 23.848 13.3944 23.7636 13.2307C23.6848 13.0669 23.5751 12.8923 23.4344 12.7067L20.6568 9.11277C20.3304 8.68707 20.0349 8.3596 19.7704 8.13037C19.5058 7.89569 19.2104 7.73196 18.8839 7.63917C18.5575 7.54639 18.141 7.5 17.6344 7.5H10.3656C9.85338 7.5 9.43408 7.54639 9.10764 7.63917C8.78683 7.73196 8.49416 7.89569 8.22963 8.13037C7.9651 8.3596 7.66962 8.68707 7.34318 9.11277L4.56564 12.7067C4.42493 12.8923 4.31237 13.0669 4.22794 13.2307C4.14352 13.3944 4.08442 13.58 4.05065 13.7874C4.01688 13.9947 4 14.2485 4 14.5487V19.1251C4 20.0038 4.23357 20.6669 4.70072 21.1144C5.16786 21.5619 5.85732 21.7857 6.7691 21.7857ZM13.9958 16.7755C13.5737 16.7755 13.205 16.68 12.8898 16.4889C12.5803 16.2925 12.3411 16.0414 12.1722 15.7358C12.0034 15.4247 11.919 15.0972 11.919 14.7534V14.6961C11.919 14.5105 11.8599 14.344 11.7417 14.1967C11.6235 14.0439 11.4434 13.9675 11.2014 13.9675H6.09371C5.94175 13.9675 5.84888 13.9183 5.81511 13.8201C5.78134 13.7219 5.80386 13.6209 5.88265 13.5172L8.95568 9.50573C9.14141 9.26559 9.34684 9.0964 9.57197 8.99816C9.80273 8.89446 10.0588 8.84261 10.3402 8.84261H17.6513C17.944 8.84261 18.2029 8.89446 18.428 8.99816C18.6532 9.0964 18.8558 9.26559 19.0359 9.50573L22.1173 13.5172C22.1849 13.6209 22.2018 13.7219 22.168 13.8201C22.1399 13.9183 22.0498 13.9675 21.8978 13.9675H16.7986C16.5566 13.9675 16.3765 14.0439 16.2583 14.1967C16.1458 14.344 16.0895 14.5105 16.0895 14.6961V14.7534C16.0895 15.0972 16.0023 15.4247 15.8278 15.7358C15.6589 16.0414 15.4169 16.2925 15.1017 16.4889C14.7922 16.68 14.4235 16.7755 13.9958 16.7755Z" fill="#919EAB"/>
</svg>
