<svg width="18" height="18" viewBox="0 0 18 18" fill="none" xmlns="http://www.w3.org/2000/svg">
<path d="M9 6.81818C10.2 6.81818 11.1818 7.8 11.1818 9C11.1818 10.2 10.2 11.1818 9 11.1818C7.8 11.1818 6.81818 10.2 6.81818 9C6.81818 7.8 7.8 6.81818 9 6.81818ZM9 5.36364C6.99273 5.36364 5.36364 6.99273 5.36364 9C5.36364 11.0073 6.99273 12.6364 9 12.6364C11.0073 12.6364 12.6364 11.0073 12.6364 9C12.6364 6.99273 11.0073 5.36364 9 5.36364ZM1.72727 9.72727H3.18182C3.58182 9.72727 3.90909 9.4 3.90909 9C3.90909 8.6 3.58182 8.27273 3.18182 8.27273H1.72727C1.32727 8.27273 1 8.6 1 9C1 9.4 1.32727 9.72727 1.72727 9.72727ZM14.8182 9.72727H16.2727C16.6727 9.72727 17 9.4 17 9C17 8.6 16.6727 8.27273 16.2727 8.27273H14.8182C14.4182 8.27273 14.0909 8.6 14.0909 9C14.0909 9.4 14.4182 9.72727 14.8182 9.72727ZM8.27273 1.72727V3.18182C8.27273 3.58182 8.6 3.90909 9 3.90909C9.4 3.90909 9.72727 3.58182 9.72727 3.18182V1.72727C9.72727 1.32727 9.4 1 9 1C8.6 1 8.27273 1.32727 8.27273 1.72727ZM8.27273 14.8182V16.2727C8.27273 16.6727 8.6 17 9 17C9.4 17 9.72727 16.6727 9.72727 16.2727V14.8182C9.72727 14.4182 9.4 14.0909 9 14.0909C8.6 14.0909 8.27273 14.4182 8.27273 14.8182ZM4.62909 3.60364C4.34545 3.32 3.88 3.32 3.60364 3.60364C3.32 3.88727 3.32 4.35273 3.60364 4.62909L4.37455 5.4C4.65818 5.68364 5.12364 5.68364 5.4 5.4C5.67636 5.11636 5.68364 4.65091 5.4 4.37455L4.62909 3.60364ZM13.6255 12.6C13.3418 12.3164 12.8764 12.3164 12.6 12.6C12.3164 12.8836 12.3164 13.3491 12.6 13.6255L13.3709 14.3964C13.6545 14.68 14.12 14.68 14.3964 14.3964C14.68 14.1127 14.68 13.6473 14.3964 13.3709L13.6255 12.6ZM14.3964 4.62909C14.68 4.34545 14.68 3.88 14.3964 3.60364C14.1127 3.32 13.6473 3.32 13.3709 3.60364L12.6 4.37455C12.3164 4.65818 12.3164 5.12364 12.6 5.4C12.8836 5.67636 13.3491 5.68364 13.6255 5.4L14.3964 4.62909ZM5.4 13.6255C5.68364 13.3418 5.68364 12.8764 5.4 12.6C5.11636 12.3164 4.65091 12.3164 4.37455 12.6L3.60364 13.3709C3.32 13.6545 3.32 14.12 3.60364 14.3964C3.88727 14.6727 4.35273 14.68 4.62909 14.3964L5.4 13.6255Z" fill="#E8C364"/>
</svg>
